<svg xmlns="http://www.w3.org/2000/svg" xmlns:xlink="http://www.w3.org/1999/xlink" width="500" zoomAndPan="magnify" viewBox="0 0 375 374.999991" height="500" preserveAspectRatio="xMidYMid meet" version="1.0"><defs><clipPath id="a80579c2b3"><path d="M 129.949219 196.835938 L 230.449219 196.835938 L 230.449219 238.085938 L 129.949219 238.085938 Z M 129.949219 196.835938 " clip-rule="nonzero"/></clipPath><clipPath id="7600c4881b"><path d="M 112.5 160.125 L 262 160.125 L 262 214 L 112.5 214 Z M 112.5 160.125 " clip-rule="nonzero"/></clipPath></defs><g clip-path="url(#a80579c2b3)"><path fill="#ffffff" d="M 218.921875 234.246094 L 230.660156 217.429688 L 212.082031 226.121094 Z M 131.929688 205.960938 C 131.878906 204.972656 131.878906 204.011719 131.847656 203.042969 L 131.582031 205.640625 L 131.527344 205.640625 L 131.367188 202.589844 L 131.128906 205.667969 L 130.910156 205.667969 L 130.621094 201.652344 L 130.378906 205.292969 L 129.949219 203.101562 L 130.140625 209.703125 L 130.378906 209.703125 C 130.488281 210.292969 130.59375 210.878906 130.726562 211.464844 L 132.574219 211.070312 C 132.441406 210.476562 132.335938 209.890625 132.226562 209.277344 L 132.015625 209.304688 L 131.960938 207.484375 L 132.015625 207.457031 C 131.988281 206.949219 131.933594 206.46875 131.933594 205.960938 Z M 214.777344 230.207031 C 214.273438 230.554688 213.765625 230.90625 213.257812 231.226562 L 214.273438 232.828125 C 214.804688 232.480469 215.34375 232.109375 215.878906 231.734375 Z M 211.679688 232.1875 C 211.144531 232.507812 210.613281 232.800781 210.074219 233.070312 L 210.929688 234.753906 C 211.492188 234.457031 212.082031 234.140625 212.617188 233.832031 Z M 208.417969 233.898438 C 207.859375 234.140625 207.324219 234.363281 206.757812 234.566406 L 207.375 236.359375 C 207.992188 236.117188 208.605469 235.894531 209.195312 235.609375 Z M 205.023438 235.09375 C 204.433594 235.253906 203.847656 235.386719 203.230469 235.519531 L 203.605469 237.371094 C 204.246094 237.234375 204.886719 237.101562 205.503906 236.90625 Z M 201.441406 235.839844 C 200.828125 235.945312 200.207031 236 199.59375 236.082031 L 199.8125 237.929688 C 200.425781 237.878906 201.066406 237.769531 201.710938 237.6875 Z M 197.746094 236.242188 L 195.898438 236.320312 L 195.949219 238.191406 L 197.875 238.113281 Z M 194.050781 236.320312 C 193.433594 236.320312 192.820312 236.296875 192.203125 236.269531 L 192.09375 238.167969 C 192.738281 238.191406 193.378906 238.21875 194.023438 238.21875 Z M 190.355469 236.164062 L 188.507812 236 L 188.316406 237.871094 C 188.929688 237.929688 189.574219 238.007812 190.214844 238.035156 Z M 186.660156 235.761719 C 186.042969 235.679688 185.429688 235.601562 184.808594 235.492188 L 184.515625 237.339844 C 185.132812 237.449219 185.769531 237.558594 186.390625 237.636719 Z M 183 235.148438 C 182.40625 235.039062 181.792969 234.878906 181.179688 234.746094 L 180.75 236.59375 C 181.367188 236.726562 182.007812 236.890625 182.625 236.996094 Z M 179.382812 234.300781 C 178.796875 234.140625 178.207031 233.976562 177.617188 233.792969 L 177.070312 235.582031 C 177.660156 235.769531 178.273438 235.957031 178.921875 236.117188 Z M 175.851562 233.203125 C 175.265625 233.015625 174.679688 232.777344 174.117188 232.558594 L 173.421875 234.324219 C 174.007812 234.542969 174.625 234.785156 175.214844 234.996094 Z M 172.40625 231.816406 C 171.84375 231.578125 171.3125 231.308594 170.746094 231.039062 L 169.894531 232.726562 C 170.480469 232.996094 171.042969 233.285156 171.628906 233.554688 Z M 166.066406 228.164062 C 165.605469 227.816406 165.144531 227.441406 164.652344 227.039062 L 163.421875 228.457031 C 163.90625 228.886719 164.414062 229.285156 164.945312 229.6875 Z M 169.144531 230.167969 C 168.722656 229.960938 168.320312 229.71875 167.9375 229.445312 L 167.859375 229.042969 L 166.042969 229.285156 L 166.257812 231.15625 L 166.976562 231.078125 C 167.378906 231.316406 167.78125 231.585938 168.183594 231.796875 Z M 163.371094 225.78125 C 162.941406 225.363281 162.539062 224.917969 162.164062 224.449219 L 160.695312 225.597656 C 161.097656 226.128906 161.535156 226.625 162.007812 227.09375 Z M 161.152344 223.011719 C 160.820312 222.507812 160.523438 221.984375 160.269531 221.4375 L 158.59375 222.265625 C 158.878906 222.867188 159.199219 223.445312 159.554688 224.003906 Z M 159.523438 219.777344 C 159.304688 219.21875 159.09375 218.65625 158.902344 218.066406 L 157.113281 218.65625 C 157.328125 219.269531 157.539062 219.882812 157.78125 220.476562 Z M 158.394531 216.332031 C 158.265625 215.738281 158.132812 215.152344 158.019531 214.539062 L 156.171875 214.855469 C 156.277344 215.5 156.414062 216.140625 156.546875 216.785156 Z M 157.808594 212.773438 C 157.78125 212.160156 157.757812 211.566406 157.78125 210.980469 L 155.882812 210.902344 C 155.882812 211.566406 155.882812 212.238281 155.9375 212.878906 Z M 157.914062 209.214844 C 158.019531 208.628906 158.132812 208.042969 158.289062 207.480469 L 156.472656 206.972656 C 156.28125 207.609375 156.148438 208.261719 156.070312 208.925781 Z M 158.878906 205.847656 C 159.121094 205.316406 159.40625 204.808594 159.734375 204.324219 L 158.152344 203.28125 C 157.773438 203.839844 157.445312 204.429688 157.164062 205.042969 Z M 160.777344 202.933594 C 161.179688 202.507812 161.605469 202.105469 162.058594 201.734375 L 160.855469 200.285156 C 160.328125 200.707031 159.839844 201.167969 159.386719 201.671875 Z M 163.476562 200.714844 C 163.984375 200.421875 164.519531 200.152344 165.050781 199.890625 L 164.28125 198.175781 C 163.667969 198.4375 163.082031 198.746094 162.515625 199.097656 Z M 166.683594 199.246094 C 167.246094 199.082031 167.816406 198.957031 168.394531 198.871094 L 168.128906 197 C 167.457031 197.101562 166.796875 197.253906 166.152344 197.464844 Z M 170.132812 198.738281 C 170.722656 198.710938 171.3125 198.738281 171.898438 198.816406 L 172.109375 196.945312 C 171.453125 196.871094 170.792969 196.835938 170.132812 196.839844 Z M 173.664062 199.113281 C 174.253906 199.226562 174.832031 199.378906 175.398438 199.574219 L 175.988281 197.78125 C 175.371094 197.597656 174.730469 197.410156 174.085938 197.273438 Z M 177.070312 200.210938 C 177.632812 200.453125 178.167969 200.675781 178.703125 200.988281 L 179.585938 199.332031 C 179.011719 199.015625 178.421875 198.730469 177.820312 198.476562 Z M 180.277344 201.898438 C 180.785156 202.21875 181.277344 202.566406 181.746094 202.9375 L 182.898438 201.441406 C 182.363281 201.039062 181.832031 200.664062 181.292969 200.320312 Z M 183.136719 204.089844 C 183.601562 204.492188 184.019531 204.914062 184.421875 205.34375 L 185.808594 204.089844 C 185.371094 203.601562 184.910156 203.136719 184.421875 202.703125 Z M 185.601562 206.734375 C 185.945312 207.199219 186.292969 207.695312 186.617188 208.203125 L 188.21875 207.214844 C 187.875 206.652344 187.503906 206.109375 187.097656 205.585938 Z M 187.449219 209.757812 C 187.699219 210.285156 187.914062 210.828125 188.089844 211.386719 L 189.90625 210.851562 C 189.699219 210.210938 189.453125 209.585938 189.15625 208.980469 Z M 188.464844 213.097656 C 188.554688 213.664062 188.589844 214.238281 188.570312 214.8125 L 190.46875 214.890625 C 190.492188 214.199219 190.449219 213.511719 190.335938 212.828125 Z M 188.359375 216.492188 C 188.234375 217.054688 188.054688 217.597656 187.824219 218.125 L 189.558594 218.871094 C 189.824219 218.238281 190.039062 217.589844 190.203125 216.921875 Z M 187.019531 219.621094 C 186.703125 220.113281 186.347656 220.574219 185.953125 221.007812 L 187.335938 222.261719 C 187.789062 221.773438 188.199219 221.246094 188.566406 220.6875 Z M 184.707031 222.246094 C 184.246094 222.617188 183.785156 222.992188 183.289062 223.339844 L 184.335938 224.886719 C 184.882812 224.515625 185.40625 224.117188 185.910156 223.6875 Z M 181.742188 224.300781 L 180.136719 225.183594 L 180.996094 226.867188 C 181.582031 226.574219 182.117188 226.253906 182.703125 225.945312 Z M 178.457031 225.957031 C 177.894531 226.199219 177.335938 226.421875 176.746094 226.652344 L 177.441406 228.417969 C 178.027344 228.203125 178.613281 227.953125 179.207031 227.695312 Z M 175.007812 227.292969 C 174.449219 227.484375 173.855469 227.667969 173.242188 227.855469 L 173.777344 229.648438 C 174.394531 229.488281 175.007812 229.296875 175.625 229.085938 Z M 171.476562 228.308594 C 170.863281 228.472656 170.277344 228.605469 169.660156 228.710938 L 170.035156 230.582031 C 170.679688 230.449219 171.292969 230.316406 171.90625 230.15625 Z M 164.179688 229.488281 C 163.5625 229.539062 162.949219 229.566406 162.332031 229.59375 L 162.410156 231.492188 C 163.050781 231.464844 163.695312 231.414062 164.308594 231.386719 Z M 160.484375 229.648438 C 159.867188 229.648438 159.25 229.621094 158.632812 229.59375 L 158.527344 231.492188 C 159.171875 231.519531 159.839844 231.519531 160.484375 231.519531 Z M 156.785156 229.488281 C 156.171875 229.433594 155.558594 229.355469 154.9375 229.277344 L 154.699219 231.125 C 155.339844 231.203125 155.976562 231.28125 156.621094 231.335938 Z M 153.125 228.980469 C 152.535156 228.875 151.921875 228.765625 151.332031 228.605469 L 150.90625 230.453125 C 151.519531 230.617188 152.164062 230.75 152.804688 230.855469 Z M 149.570312 228.148438 C 148.980469 227.992188 148.394531 227.800781 147.804688 227.589844 L 147.1875 229.355469 C 147.777344 229.59375 148.394531 229.777344 149.035156 229.96875 Z M 146.121094 226.917969 C 145.554688 226.679688 144.996094 226.457031 144.460938 226.171875 L 143.605469 227.828125 C 144.171875 228.125 144.757812 228.394531 145.371094 228.65625 Z M 142.886719 225.289062 C 142.351562 224.96875 141.871094 224.648438 141.363281 224.300781 L 140.269531 225.851562 C 140.808594 226.226562 141.367188 226.574219 141.929688 226.890625 Z M 139.921875 223.207031 C 139.457031 222.832031 138.996094 222.429688 138.535156 222 L 137.226562 223.339844 C 137.683594 223.8125 138.171875 224.246094 138.695312 224.648438 Z M 137.34375 220.691406 C 136.941406 220.230469 136.566406 219.769531 136.21875 219.273438 L 134.695312 220.394531 C 135.074219 220.929688 135.484375 221.4375 135.929688 221.921875 Z M 135.230469 217.777344 C 134.914062 217.269531 134.617188 216.734375 134.347656 216.203125 L 132.664062 217.027344 C 132.957031 217.617188 133.253906 218.179688 133.585938 218.738281 Z M 133.628906 214.542969 C 133.402344 213.980469 133.207031 213.410156 133.042969 212.828125 L 131.207031 213.378906 C 131.398438 213.992188 131.609375 214.636719 131.847656 215.226562 Z M 133.628906 214.542969 " fill-opacity="1" fill-rule="nonzero"/></g><g clip-path="url(#7600c4881b)"><path fill="#c614bf" d="M 214.269531 206.328125 C 209.871094 213.398438 203.683594 212.980469 200.878906 206.425781 C 195.238281 213.542969 188.921875 213.257812 183.269531 205.453125 C 181.859375 207.683594 180.46875 209.980469 177.59375 210.324219 C 174.507812 210.695312 172.90625 208.65625 171.601562 206.253906 C 165.28125 213.898438 161.328125 213.617188 155.582031 205.101562 C 154.691406 206.644531 153.972656 208.234375 152.886719 209.59375 C 148.644531 214.902344 142.101562 214.4375 138.722656 208.527344 C 136.75 205.074219 136.308594 201.21875 136.117188 197.34375 C 135.808594 191.171875 136.222656 185.011719 136.914062 178.886719 C 137.09375 177.28125 136.546875 177.121094 135.21875 177.148438 C 129.050781 177.28125 122.882812 177.335938 116.71875 177.414062 C 113.96875 177.453125 112.632812 176.625 112.660156 174.914062 C 112.6875 173.277344 113.921875 172.523438 116.632812 172.5 C 123.039062 172.433594 129.449219 172.320312 135.855469 172.3125 C 137.152344 172.3125 137.671875 171.933594 137.765625 170.621094 C 137.953125 168.15625 138.265625 165.691406 138.578125 163.238281 C 138.84375 161.175781 139.855469 160.125 141.3125 160.269531 C 142.828125 160.417969 143.566406 161.601562 143.367188 163.683594 C 143.160156 165.847656 142.96875 168.023438 142.636719 170.164062 C 142.402344 171.699219 142.722656 172.238281 144.453125 172.21875 C 158.839844 172.019531 173.230469 171.917969 187.621094 171.792969 C 188.40625 171.785156 189.175781 171.761719 189.949219 172.019531 C 191.058594 172.390625 191.683594 173.117188 191.664062 174.28125 C 191.652344 175.445312 191.011719 176.222656 189.882812 176.488281 C 189.183594 176.65625 188.453125 176.730469 187.734375 176.734375 C 173.105469 176.882812 158.46875 177.035156 143.839844 177.09375 C 142.230469 177.101562 141.890625 177.585938 141.757812 179.117188 C 141.199219 185.5625 140.648438 192.003906 141.105469 198.484375 C 141.277344 200.90625 141.597656 203.300781 142.628906 205.523438 C 144.277344 209.085938 147.152344 209.359375 149.367188 206.132812 C 151.890625 202.46875 152.753906 198.171875 153.773438 193.953125 C 154.238281 192.023438 154.523438 190.042969 154.871094 188.085938 C 155.269531 185.796875 156.285156 184.746094 157.871094 185.019531 C 159.460938 185.296875 160.179688 186.855469 159.832031 189.082031 C 159.152344 193.46875 158.8125 197.859375 160.019531 202.207031 C 160.257812 203.074219 160.589844 203.9375 161.042969 204.710938 C 162.527344 207.238281 164.601562 207.363281 166.351562 205.03125 C 168.222656 202.542969 168.871094 199.574219 169.386719 196.59375 C 169.792969 194.210938 170.136719 191.824219 170.195312 189.394531 C 170.242188 187.445312 171.289062 186.261719 172.757812 186.242188 C 174.300781 186.222656 175.246094 187.464844 175.246094 189.589844 C 175.246094 193.753906 174.761719 197.929688 175.578125 202.070312 C 175.8125 203.257812 175.757812 205.074219 177.082031 205.214844 C 178.226562 205.335938 178.71875 203.597656 179.117188 202.5 C 180.300781 199.273438 181.320312 195.988281 182.476562 192.753906 C 183.46875 189.980469 184.925781 187.488281 187.320312 185.675781 C 190.773438 183.0625 194.550781 182.695312 198.375 184.652344 C 200 185.484375 200.121094 184.84375 200.210938 183.554688 C 200.585938 178.433594 201.277344 173.34375 202.074219 168.273438 C 202.121094 167.976562 202.121094 167.667969 202.195312 167.375 C 202.554688 165.953125 203.320312 164.929688 204.921875 164.976562 C 206.285156 165.015625 207.285156 166.257812 207.144531 167.980469 C 206.945312 170.441406 206.5 172.882812 206.261719 175.347656 C 205.441406 183.882812 204.265625 192.402344 204.949219 201.019531 C 205.0625 202.414062 205.316406 203.777344 205.8125 205.074219 C 206.5 206.851562 207.429688 206.976562 208.714844 205.515625 C 209.558594 204.550781 210.070312 203.386719 210.519531 202.195312 C 211.847656 198.601562 212.679688 194.84375 212.839844 191.066406 C 213.09375 185.089844 220.011719 179.742188 227.128906 182.097656 C 231.84375 183.660156 235.070312 187.925781 235.457031 193.132812 C 235.636719 195.5625 235.5625 197.984375 234.9375 200.332031 C 234.632812 201.496094 234.757812 201.957031 236.089844 201.957031 C 244.039062 201.957031 250.992188 199.363281 256.925781 194.066406 C 257.105469 193.90625 257.257812 193.714844 257.4375 193.554688 C 258.859375 192.230469 260.230469 192.0625 261.28125 193.082031 C 262.332031 194.097656 262.234375 195.535156 260.917969 196.925781 C 256.851562 201.21875 251.742188 203.753906 246.195312 205.449219 C 242.0625 206.710938 237.824219 207.316406 233.496094 206.679688 C 232.917969 206.59375 232.523438 206.691406 232.085938 207.179688 C 225.785156 214.144531 219.613281 213.835938 214.257812 206.328125 Z M 186.59375 198.382812 C 186.714844 200.84375 187.179688 203.300781 189.234375 205.136719 C 191.785156 207.410156 194.644531 207.058594 196.402344 204.15625 C 198.464844 200.773438 199.003906 196.945312 199.328125 193.089844 C 199.347656 192.863281 199.316406 192.574219 199.1875 192.390625 C 197.871094 190.421875 196.179688 188.816406 193.761719 188.539062 C 191.765625 188.3125 190.199219 189.4375 189.011719 191.003906 C 187.378906 193.140625 186.703125 195.601562 186.589844 198.375 Z M 230.660156 196 C 230.742188 191.265625 229.246094 188.34375 226.457031 187.046875 C 223.847656 185.832031 220.355469 186.601562 218.71875 188.75 C 217.390625 190.5 217.882812 193.121094 220.023438 195.449219 C 222.378906 198.011719 225.390625 199.496094 228.613281 200.644531 C 229.53125 200.972656 229.957031 200.691406 230.082031 199.734375 C 230.277344 198.238281 230.542969 196.753906 230.65625 196 Z M 227.28125 205.367188 C 223.761719 204.105469 220.644531 202.515625 217.84375 200.160156 C 217.628906 202.902344 219.152344 205.675781 221.320312 206.707031 C 223.375 207.683594 225.214844 207.332031 227.28125 205.367188 Z M 227.28125 205.367188 " fill-opacity="1" fill-rule="nonzero"/></g><path fill="#ffffff" d="M 130.953125 204.324219 C 129.84375 202.023438 130.117188 199.753906 130.082031 197.578125 C 130.015625 193.78125 130.640625 190.019531 131.082031 186.257812 C 131.140625 185.742188 131.039062 184.773438 131.84375 184.890625 C 132.53125 184.992188 132.363281 185.875 132.3125 186.457031 C 131.820312 191.609375 131.441406 196.773438 131.757812 201.960938 C 131.804688 202.742188 131.773438 203.519531 130.960938 204.316406 Z M 130.953125 204.324219 " fill-opacity="1" fill-rule="nonzero"/><path fill="#ffffff" d="M 238.902344 210.804688 C 241.457031 210.152344 243.875 210.203125 246.167969 209.5 C 248.476562 208.789062 250.730469 207.988281 252.839844 206.792969 C 253.414062 206.464844 254.019531 206.171875 254.636719 205.953125 C 255.0625 205.808594 255.6875 205.582031 255.914062 206.085938 C 256.121094 206.539062 255.679688 207.003906 255.261719 207.257812 C 254.390625 207.789062 253.5 208.289062 252.59375 208.761719 C 249.070312 210.609375 245.285156 211.480469 241.320312 211.574219 C 240.554688 211.59375 239.753906 211.640625 238.902344 210.796875 Z M 238.902344 210.804688 " fill-opacity="1" fill-rule="nonzero"/><path fill="#ffffff" d="M 133.722656 209.105469 C 133.773438 209.652344 133.5 209.925781 133.101562 209.824219 C 132.019531 209.539062 131.792969 208.542969 131.492188 207.648438 C 131.367188 207.277344 131.679688 206.71875 131.910156 206.859375 C 132.777344 207.390625 133.28125 208.28125 133.722656 209.113281 Z M 133.722656 209.105469 " fill-opacity="1" fill-rule="nonzero"/></svg>